<svg id="Layer_1" data-name="Layer 1" xmlns="http://www.w3.org/2000/svg" viewBox="0 0 8116.3 1500.3"><defs><style>.cls-1{fill:#9b0014;}.cls-2{fill:none;}.cls-3{fill:#574e42;}</style></defs><title>tutormeisterArtboard 1</title><path class="cls-1" d="M750.15,0C335.85,0,0,335.85,0,750.15S335.85,1500.3,750.15,1500.3s750.15-335.85,750.15-750.15S1164.45,0,750.15,0Zm608.48,639.67-47,15.82V782.08a42.68,42.68,0,1,1-44.82.65V670.56l-77.14,25.94V931h0c0,111.49-227.82,162.27-439.48,162.27S310.68,1042.49,310.68,931V696.5l-169-56.83c-58.59-19.69-58.59-51.93,0-71.63l502-168.76c29.29-9.85,67.91-14.77,106.53-14.77s77.24,4.92,106.53,14.77l502,168.76C1417.23,587.74,1417.23,620,1358.63,639.67Z"/><path class="cls-1" d="M750.15,457.56c-31.71,0-62.83,4.1-83.25,11L264.38,603.86,666.9,739.19c20.42,6.86,51.54,11,83.25,11s62.83-4.1,83.25-11l402.52-135.33L833.4,468.53C813,461.66,781.86,457.56,750.15,457.56Z"/><path class="cls-1" d="M750.15,823.21c-38.62,0-77.24-4.93-106.53-14.78L383.73,721.06V931c0,5.33,15.68,30.11,92.37,54,72.68,22.68,170,35.17,274,35.17S951.52,1007.72,1024.2,985c76.69-23.93,92.37-48.71,92.37-54h0V721.06L856.68,808.43C827.39,818.28,788.77,823.21,750.15,823.21Z"/><path d="M1788.16,303.9h0A51.19,51.19,0,0,0,1737,355.09V944.31c0,63.73,18.24,114.29,54.2,150.27s87.38,54.22,152.84,54.22h65.43a50,50,0,0,0,50-50h0a50,50,0,0,0-50-50h-76c-29.45,0-51.92-8.49-68.71-26-17.06-17.76-25.36-41.78-25.36-73.46V574.55h170.09a50,50,0,0,0,50-50h0a50,50,0,0,0-50-50H1839.35V355.09A51.19,51.19,0,0,0,1788.16,303.9Z"/><path d="M2550.93,873.24c0,56.35-16.48,101-50.38,136.35-33.6,35.08-73.71,52.13-122.6,52.13s-89-17-122.61-52.13c-33.9-35.38-50.37-80-50.37-136.35V525.72a51.19,51.19,0,0,0-51.19-51.19h0a51.19,51.19,0,0,0-51.19,51.19v354c0,82.94,26.41,151.41,78.48,203.5s118.3,78.51,196.88,78.51c77.7,0,143.71-26.63,196.21-79.17s79.14-120.8,79.14-202.84v-354a51.19,51.19,0,0,0-51.19-51.19h0a51.18,51.18,0,0,0-51.18,51.19Z"/><path d="M2864.18,1022.82c-17.06-17.76-25.36-41.78-25.36-73.46V574.55h170.09a50,50,0,0,0,50-50h0a50,50,0,0,0-50-50H2838.82V355.09a51.19,51.19,0,0,0-51.19-51.19h0a51.19,51.19,0,0,0-51.19,51.19V944.31c0,63.73,18.24,114.29,54.2,150.27s87.38,54.22,152.84,54.22h65.43a50,50,0,0,0,50-50h0a50,50,0,0,0-50-50h-76C2903.44,1048.78,2881,1040.29,2864.18,1022.82Z"/><path class="cls-2" d="M3104.41,811.67c0,.73,0,1.45,0,2.17,0-.72,0-1.45,0-2.17Z"/><path class="cls-2" d="M3120.72,914h0c-.17-.5-.33-1-.49-1.51C3120.39,913,3120.55,913.48,3120.72,914Z"/><path class="cls-2" d="M3392.12,561.61c-66.78,0-121.24,24.37-166.46,74.49-46,50.92-68.29,108.34-68.29,175.57,0,68.12,22.12,125.78,67.63,176.24,44.79,49.67,99.45,73.81,167.12,73.81,66.79,0,121.24-24.36,166.48-74.48,45.94-50.93,68.28-108.36,68.28-175.57,0-68.11-22.13-125.75-67.65-176.23C3514.43,585.76,3459.77,561.61,3392.12,561.61Z"/><path d="M3635,565.39c-66-68.88-147.72-103.8-242.94-103.8s-176.74,34.7-242.28,103.15c-65.23,68.12-98.31,151.2-98.31,246.93s33.08,178.8,98.31,246.92c65.54,68.45,147.06,103.15,242.28,103.15,96.09,0,178-34.7,243.58-103.15,65.25-68.13,98.34-151.21,98.34-246.92C3734,716.81,3700.66,634,3635,565.39ZM3558.6,987.24c-45.24,50.12-99.69,74.48-166.48,74.48-67.67,0-122.33-24.14-167.12-73.81-45.51-50.46-67.63-108.12-67.63-176.24,0-67.23,22.33-124.65,68.29-175.57,45.22-50.12,99.68-74.49,166.46-74.49,67.65,0,122.31,24.15,167.11,73.83,45.52,50.48,67.65,108.12,67.65,176.23C3626.88,878.88,3604.54,936.31,3558.6,987.24Z"/><path class="cls-1" d="M4821.79,472.18c-54.87,0-100.35,11.91-135.18,35.41a192.28,192.28,0,0,0-52.36,53,181.62,181.62,0,0,0-51.5-53c-34.85-23.5-79.9-35.41-133.91-35.41-67.08,0-123.95,22.39-169,66.54s-68.14,105.76-68.14,182.7V1108.2a51.18,51.18,0,0,0,51.18,51.19h0A51.19,51.19,0,0,0,4314,1108.2V721.35c0-48.84,13-85,39.69-110.64,27-25.91,58.11-38.51,95.05-38.51,37.74,0,69,12.56,95.57,38.37,26.35,25.65,39.16,61.89,39.16,110.78V1108.2a51.19,51.19,0,0,0,51.19,51.19h0a51.19,51.19,0,0,0,51.19-51.19V721.35c0-49.71,12.76-86.11,39-111.29,26.57-25.48,58.29-37.86,97-37.86,37.72,0,69,12.55,95.51,38.37,26.34,25.64,39.15,61.87,39.15,110.78V1108.2a51.19,51.19,0,0,0,51.19,51.19h0a51.18,51.18,0,0,0,51.18-51.19V721.42c0-77.8-22.7-139.49-67.48-183.36C4946.79,494.34,4889.72,472.18,4821.79,472.18Z"/><path class="cls-3" d="M5232.92,915.84c1.09,2.93,2.26,5.82,3.46,8.69Z"/><path class="cls-1" d="M5786.54,809.15h-54.13a26.48,26.48,0,0,0-26.48,26.47c0,64.71-23.67,119.09-72.37,166.25-48.92,47.4-105.55,70.44-173.11,70.44-69.86,0-126.51-23.5-173.16-71.85q-2.21-2.3-4.33-4.6l490.09-337.24L5759.6,637c-31.06-50-73.49-90.36-126.13-120s-110.91-44.78-172.9-44.78c-101.46,0-186,34.72-251.16,103.2-64.85,68.11-97.73,151.61-97.73,248.18,0,97.79,34.38,181.28,102.19,248.13s154.18,100.64,257,100.64c94.19,0,175.62-33.65,242-100S5813,926.28,5813,835.62A26.48,26.48,0,0,0,5786.54,809.15Zm-568.95,17c0-69.78,22.73-128.43,69.51-179.32,46.16-50.24,102.87-74.67,173.35-74.67,65.54,0,118.23,20.65,160.26,63L5227.59,899.78C5220.9,876.82,5217.59,852.35,5217.59,826.19Zm18.79,98.34c-1.2-2.87-2.37-5.76-3.46-8.69Z"/><path class="cls-1" d="M5942.58,269.78c-18.35,0-34.6,6.55-47,18.93s-18.91,28.62-18.91,47,6.54,34.6,18.91,47,28.62,18.91,47,18.91,34.58-6.54,47-18.91,18.93-28.63,18.93-47-6.54-34.58-18.93-47S5960.91,269.78,5942.58,269.78Z"/><rect class="cls-1" x="5891.98" y="486.3" width="102.38" height="673.09" rx="51.19"/><path class="cls-1" d="M6496.14,799l-1.56-.64-1.62-.43c-68.41-18.2-139-37.58-209.79-57.59-87.44-24.69-87.44-65.87-87.44-79.4,0-24.32,7.4-42.34,22.6-55.09,16.62-13.93,35.66-20.7,58.23-20.7h251.29a50,50,0,0,0,50-50h0a50,50,0,0,0-50-50H6272.42c-56.95,0-102.57,17.27-135.58,51.32-32.76,33.81-49.36,76.18-49.36,125.93,0,38.37,11.43,72.07,34,100.16,21.66,27,53.83,48.8,95.63,64.84l1.28.49,1.32.36c72,19.41,139,37.35,204.76,54.85C6517,915,6517,964.62,6517,981c0,24.17-8.39,41.86-26.4,55.67-19.68,15.08-52.71,22.73-98.17,22.73H6137.49a50,50,0,0,0-50,50h0a50,50,0,0,0,50,50h243.18c76.25,0,136-15.12,177.68-44.94,44.39-31.8,66.89-79.4,66.89-141.48,0-40.24-11.26-75.59-33.48-105.08C6570.16,839.22,6538,816,6496.14,799Z"/><path class="cls-1" d="M6806.32,1033.41C6789.26,1015.66,6781,991.63,6781,960V585.14h170.09a50,50,0,0,0,50-50h0a50,50,0,0,0-50-50H6781V365.68a51.19,51.19,0,0,0-51.19-51.19h0a51.18,51.18,0,0,0-51.18,51.19V954.9c0,63.73,18.23,114.29,54.19,150.27s87.38,54.22,152.84,54.22h65.43a50,50,0,0,0,50-50h0a50,50,0,0,0-50-50h-76C6845.58,1059.37,6823.11,1050.88,6806.32,1033.41Z"/><path class="cls-1" d="M7668.46,809.15h-54.13a26.48,26.48,0,0,0-26.48,26.47c0,64.71-23.67,119.09-72.37,166.25-48.93,47.4-105.55,70.44-173.11,70.44-69.87,0-126.51-23.5-173.16-71.85-2.57-2.67-5.05-5.36-7.48-8.08L7655,658.62,7641.52,637c-31.06-50-73.49-90.36-126.13-120s-110.91-44.78-172.91-44.78c-101.45,0-185.95,34.72-251.15,103.2-64.85,68.11-97.73,151.61-97.73,248.18,0,97.79,34.38,181.28,102.19,248.13s154.18,100.64,257,100.64c94.19,0,175.62-33.65,242-100s100.11-146,100.11-236.68A26.47,26.47,0,0,0,7668.46,809.15Zm-568.95,17c0-69.78,22.73-128.43,69.5-179.32,46.17-50.24,102.88-74.67,173.36-74.67,65.54,0,118.23,20.65,160.25,63L7109.51,899.78C7102.82,876.82,7099.51,852.35,7099.51,826.19Z"/><path d="M4069.35,485.12a215.61,215.61,0,0,0-41.31,3.95c-125.43,18.59-220.63,109.21-220.63,218.21,0,.85,0,1.7,0,2.54l0,.06V1108.2a51.19,51.19,0,0,0,51.19,51.19h0a51.19,51.19,0,0,0,51.19-51.19V807.77c0-66-7.87-123.62,26.92-166.34,33.44-41.08,95.22-56.29,137.88-56.29h28.86a50,50,0,0,0,50-50h0a50,50,0,0,0-50-50Z"/><path class="cls-1" d="M8032.18,496.77a216.41,216.41,0,0,0-41.31,3.94c-125.43,18.6-220.62,109.22-220.62,218.21,0,.86,0,1.7,0,2.55l0,0v398.33a51.17,51.17,0,0,0,51.18,51.18h0a51.18,51.18,0,0,0,51.19-51.18V819.41c0-66-7.87-123.61,26.92-166.34,33.44-41.08,95.22-56.28,137.88-56.28h28.87a50,50,0,0,0,50-50h0a50,50,0,0,0-50-50Z"/></svg>