<svg id="Layer_1" data-name="Layer 1" xmlns="http://www.w3.org/2000/svg" viewBox="0 0 1000 1000"><defs><style>.cls-1{fill:#9b0014;}</style></defs><title>tm-iconArtboard 1</title><path class="cls-1" d="M500,.3C223.86.3,0,224.16,0,500.3s223.86,500,500,500,500-223.86,500-500S776.14.3,500,.3ZM905.57,426.67l-31.35,10.54v84.37a28.46,28.46,0,1,1-29.87.44V447.25l-51.42,17.29v156.3h0C792.92,695.15,641.08,729,500,729S207.08,695.15,207.08,620.84V464.54L94.43,426.67c-39.06-13.13-39.06-34.62,0-47.75L429,266.44c19.53-6.57,45.27-9.85,71-9.85s51.48,3.28,71,9.85L905.57,378.92C944.63,392.05,944.63,413.54,905.57,426.67Z"/><path class="cls-1" d="M500,305.28c-21.13,0-41.88,2.74-55.49,7.31l-268.29,90.2L444.51,493c13.61,4.58,34.36,7.31,55.49,7.31s41.88-2.73,55.49-7.31l268.29-90.2-268.29-90.2C541.88,308,521.13,305.28,500,305.28Z"/><path class="cls-1" d="M500,549c-25.74,0-51.48-3.29-71-9.85L255.77,480.91V620.84c0,3.55,10.45,20.07,61.57,36C365.78,672,430.65,680.31,500,680.31S634.22,672,682.66,656.87c51.12-16,61.57-32.48,61.57-36h0V480.91L571,539.15C551.48,545.71,525.74,549,500,549Z"/></svg>